<?xml version="1.0" encoding="UTF-8" standalone="no"?>
<!DOCTYPE svg PUBLIC "-//W3C//DTD SVG 1.1//EN" "http://www.w3.org/Graphics/SVG/1.1/DTD/svg11.dtd">
<svg version="1.1" xmlns="http://www.w3.org/2000/svg" xmlns:xlink="http://www.w3.org/1999/xlink" preserveAspectRatio="xMidYMid meet" viewBox="149 226.5 224 176.5" width="220" height="172.5"><defs><path d="M300 300L250 300L250 350L200 350L200 400L150 400" id="axqwF3nin"></path><path d="" id="d4tyFJGOa4"></path><path d="M305 270L320 270L320 255L305 255L305 270Z" id="a1f8v8l014"></path><path d="M340 255L340 270L355 270L355 255L340 255Z" id="c39zAag9b"></path><path d="M300 250L300 300" id="bv9WrtOam"></path><path d="M360 250L360 300" id="h1wipPH1TQ"></path><path d="M360 250L370 250L340 230L320 230" id="a1jGWjhj6o"></path><path d="M300 250L290 250L320 230" id="c1QWJlBbGb"></path><path d="M355 240L355 227.5L350 227.5L350 236.56" id="d23sveHahs"></path></defs><g><g><g><use xlink:href="#axqwF3nin" opacity="1" fill-opacity="0" stroke="#000000" stroke-width="1" stroke-opacity="1"></use></g></g><g><g><use xlink:href="#d4tyFJGOa4" opacity="1" fill-opacity="0" stroke="#000000" stroke-width="1" stroke-opacity="1"></use></g></g><g><g><use xlink:href="#a1f8v8l014" opacity="1" fill-opacity="0" stroke="#000000" stroke-width="1" stroke-opacity="1"></use></g></g><g><g><use xlink:href="#c39zAag9b" opacity="1" fill-opacity="0" stroke="#000000" stroke-width="1" stroke-opacity="1"></use></g></g><g><g><use xlink:href="#bv9WrtOam" opacity="1" fill-opacity="0" stroke="#000000" stroke-width="1" stroke-opacity="1"></use></g></g><g><g><use xlink:href="#h1wipPH1TQ" opacity="1" fill-opacity="0" stroke="#000000" stroke-width="1" stroke-opacity="1"></use></g></g><g><g><use xlink:href="#a1jGWjhj6o" opacity="1" fill-opacity="0" stroke="#000000" stroke-width="1" stroke-opacity="1"></use></g></g><g><g><use xlink:href="#c1QWJlBbGb" opacity="1" fill-opacity="0" stroke="#000000" stroke-width="1" stroke-opacity="1"></use></g></g><g><g><use xlink:href="#d23sveHahs" opacity="1" fill-opacity="0" stroke="#000000" stroke-width="1" stroke-opacity="1"></use></g></g></g></svg>